<svg xmlns="http://www.w3.org/2000/svg" width="24" height="24" viewBox="0 0 24 24" fill="none" stroke="currentColor" stroke-width="2" stroke-linecap="round" stroke-linejoin="round" class="feather feather-table-group">
    <circle cx="12" cy="12" r="6" />
    <path d="M10 3a2 2 0 0 1 4 0" />
    <path d="M10 3v3" />
    <path d="M14 3v3" />
    <path d="M10 21a2 2 0 0 0 4 0" />
    <path d="M10 18v3" />
    <path d="M14 18v3" />
    <path d="M3 10a2 2 0 0 0 0 4" />
    <path d="M3 10h3" />
    <path d="M3 14h3" />
    <path d="M21 10a2 2 0 0 1 0 4" />
    <path d="M18 10h3" />
    <path d="M18 14h3" />
</svg>
